<svg xmlns="http://www.w3.org/2000/svg" width="155" height="70" viewBox="0 0 155 70">
  <g fill="none">
    <g fill="#8AAE75">
      <path d="M15.148 5.363C12.209 5.363 9.897 6.515 8.214 8.819 6.53 11.123 5.688 14.303 5.688 18.358 5.688 22.603 6.498 25.814 8.117 27.992 9.736 30.169 12.08 31.258 15.148 31.258 16.475 31.258 17.759 31.112 19.001 30.82 20.243 30.528 21.534 30.153 22.875 29.695L22.875 34.548C20.42 35.574 17.638 36.087 14.528 36.087 9.948 36.087 6.43 34.552 3.977 31.483 1.522 28.414.296 24.023.296 18.311.296 14.713.891 11.565 2.083 8.867 3.273 6.168 4.996 4.1 7.25 2.664 9.504 1.228 12.151.51 15.19.51 18.386.51 21.339 1.252 24.05 2.735L22.21 7.445C21.154 6.893 20.038 6.408 18.86 5.989 17.684 5.572 16.446 5.363 15.148 5.363zM48.063 35.613L44.938 26.003 32.975 26.003 29.914 35.613 24.52 35.613 36.228.865 41.792.865 53.5 35.613 48.063 35.613zM43.59 21.127L40.658 11.706C40.444 11.075 40.148 10.081 39.77 8.724 39.392 7.367 39.131 6.373 38.989 5.742 38.604 7.683 38.04 9.805 37.299 12.109L34.474 21.128 43.59 21.128 43.59 21.127z"/>
      <polygon points="56.666 35.613 56.666 1.008 61.781 1.008 61.781 35.613"/>
      <polygon points="79.887 35.613 74.771 35.613 74.771 5.86 65.568 5.86 65.568 1.008 89.09 1.008 89.09 5.86 79.887 5.86"/>
      <polygon points="92.919 35.613 92.919 1.008 98.033 1.008 98.033 30.76 111.282 30.76 111.282 35.613"/>
      <polygon points="115.711 35.613 115.711 1.008 120.826 1.008 120.826 35.613"/>
      <path d="M154.192,35.613 L147.921,35.613 L132.533,8.037 L132.362,8.037 L132.469,9.576 C132.668,12.511 132.768,15.194 132.768,17.624 L132.768,35.613 L128.123,35.613 L128.123,1.008 L134.33,1.008 L149.676,28.442 L149.805,28.442 C149.776,28.079 149.719,26.757 149.633,24.477 C149.547,22.197 149.504,20.417 149.504,19.14 L149.504,1.008 L154.192,1.008 L154.192,35.613 Z"/>
    </g>
    <g fill="#EEEBEB" transform="translate(1 35)">
      <polygon points="22.14 34.66 20.003 34.66 20.003 18.159 2.281 18.159 2.281 34.66 .164 34.66 .164 1.106 2.281 1.106 2.281 16.001 20.003 16.001 20.003 1.106 22.14 1.106"/>
      <path d="M44.364 22.817L32.037 22.817 27.804 34.66 25.459 34.66 37.661.968 39.01.968 50.963 34.66 48.576 34.66 44.364 22.817zM32.805 20.706L43.659 20.706 39.529 8.61C39.183 7.663 38.768 6.346 38.284 4.663 37.91 6.132 37.502 7.464 37.06 8.657L32.805 20.706zM78.457 34.66L76.714 34.66 70.053 8.771C69.499 6.645 69.084 4.901 68.808 3.539 68.586 4.87 68.271 6.4 67.864 8.129 67.456 9.858 65.225 18.702 61.172 34.66L59.387 34.66 51.045 1.106 53.265 1.106 58.577 22.726C58.785 23.598 58.978 24.406 59.158 25.148 59.338 25.89 59.5 26.586 59.646 27.236 59.791 27.886 59.922 28.513 60.04 29.119 60.158 29.723 60.265 30.332 60.362 30.943 60.694 28.862 61.4 25.703 62.479 21.464L67.667 1.106 70.012 1.106 76.093 24.47C76.798 27.163 77.303 29.335 77.608 30.988 77.788 29.886 78.019 28.717 78.303 27.477 78.586 26.238 80.72 17.448 84.704 1.106L86.843 1.106 78.457 34.66z"/>
      <polygon points="91.218 34.66 91.218 1.106 93.334 1.106 93.334 32.457 107.799 32.457 107.799 34.66"/>
      <polygon points="128.631 34.66 112.051 34.66 112.051 1.106 128.631 1.106 128.631 3.264 114.168 3.264 114.168 15.955 127.822 15.955 127.822 18.112 114.168 18.112 114.168 32.503 128.631 32.503"/>
      <polygon points="141.496 19.467 150.377 1.106 152.66 1.106 142.554 21.692 142.554 34.66 140.375 34.66 140.375 21.876 130.227 1.106 132.656 1.106"/>
    </g>
  </g>
</svg>
