<?xml version="1.0" encoding="utf-8"?>
<!-- Generator: Adobe Illustrator 16.0.0, SVG Export Plug-In . SVG Version: 6.00 Build 0)  -->
<!DOCTYPE svg PUBLIC "-//W3C//DTD SVG 1.1//EN" "http://www.w3.org/Graphics/SVG/1.1/DTD/svg11.dtd">
<svg version="1.1" id="Layer_1" xmlns="http://www.w3.org/2000/svg" xmlns:xlink="http://www.w3.org/1999/xlink" x="0px" y="0px"
	 width="169.199px" height="79.357px" viewBox="0 0 169.199 79.357" enable-background="new 0 0 169.199 79.357"
	 xml:space="preserve">
<g id="Layer_1_1_">
	<g enable-background="new    ">
		<path fill="#8AAE75" d="M20.148,9.363c-2.939,0-5.251,1.152-6.934,3.456c-1.684,2.304-2.526,5.484-2.526,9.539
			c0,4.245,0.81,7.456,2.429,9.634c1.619,2.177,3.963,3.266,7.031,3.266c1.327,0,2.611-0.146,3.853-0.438s2.533-0.667,3.874-1.125
			v4.853c-2.455,1.026-5.237,1.539-8.347,1.539c-4.58,0-8.098-1.535-10.551-4.604c-2.455-3.069-3.681-7.46-3.681-13.172
			c0-3.598,0.595-6.746,1.787-9.444C8.273,10.168,9.996,8.1,12.25,6.664c2.254-1.436,4.901-2.154,7.94-2.154
			c3.196,0,6.149,0.742,8.86,2.225l-1.84,4.71c-1.056-0.552-2.172-1.037-3.35-1.456C22.684,9.572,21.446,9.363,20.148,9.363z"/>
		<path fill="#8AAE75" d="M53.063,39.613l-3.125-9.61H37.975l-3.061,9.61h-5.394L41.228,4.865h5.564L58.5,39.613H53.063z
			 M48.59,25.127l-2.932-9.421c-0.214-0.631-0.51-1.625-0.888-2.982c-0.378-1.357-0.639-2.351-0.781-2.982
			c-0.385,1.941-0.949,4.063-1.69,6.367l-2.825,9.019H48.59z"/>
		<path fill="#8AAE75" d="M61.666,39.613V5.008h5.115v34.605H61.666z"/>
		<path fill="#8AAE75" d="M84.887,39.613h-5.116V9.86h-9.203V5.008H94.09V9.86h-9.203V39.613z"/>
		<path fill="#8AAE75" d="M97.919,39.613V5.008h5.114V34.76h13.249v4.853H97.919z"/>
		<path fill="#8AAE75" d="M120.711,39.613V5.008h5.115v34.605H120.711z"/>
		<path fill="#8AAE75" d="M159.192,39.613h-6.271l-15.388-27.576h-0.171l0.107,1.539c0.199,2.935,0.299,5.618,0.299,8.048v17.989
			h-4.645V5.008h6.207l15.346,27.434h0.129c-0.029-0.363-0.086-1.685-0.172-3.965s-0.129-4.06-0.129-5.337V5.008h4.688V39.613z"/>
	</g>
	<g enable-background="new    ">
		<path fill="#EEEBEB" d="M28.14,73.66h-2.137V57.159H8.281V73.66H6.164V40.106h2.117v14.895h17.722V40.106h2.137V73.66z"/>
		<path fill="#EEEBEB" d="M50.364,61.817H38.037L33.804,73.66h-2.345l12.202-33.692h1.349L56.963,73.66h-2.387L50.364,61.817z
			 M38.805,59.706h10.854l-4.13-12.096c-0.346-0.947-0.761-2.264-1.245-3.947c-0.374,1.469-0.782,2.801-1.224,3.994L38.805,59.706z"
			/>
		<path fill="#EEEBEB" d="M84.457,73.66h-1.743l-6.661-25.889c-0.554-2.126-0.969-3.87-1.245-5.232
			c-0.222,1.331-0.537,2.861-0.944,4.59c-0.408,1.729-2.639,10.573-6.692,26.531h-1.785l-8.342-33.554h2.22l5.312,21.62
			c0.208,0.872,0.401,1.68,0.581,2.422s0.342,1.438,0.488,2.088c0.145,0.65,0.276,1.277,0.394,1.883
			c0.118,0.604,0.225,1.213,0.322,1.824c0.332-2.081,1.038-5.24,2.117-9.479l5.188-20.358h2.345l6.081,23.364
			c0.705,2.693,1.21,4.865,1.515,6.518c0.18-1.102,0.411-2.271,0.695-3.511c0.283-1.239,2.417-10.029,6.401-26.371h2.139
			L84.457,73.66z"/>
		<path fill="#EEEBEB" d="M97.218,73.66V40.106h2.116v31.351h14.465v2.203H97.218z"/>
		<path fill="#EEEBEB" d="M134.631,73.66h-16.58V40.106h16.58v2.158h-14.463v12.691h13.654v2.157h-13.654v14.391h14.463V73.66z"/>
		<path fill="#EEEBEB" d="M147.496,58.467l8.881-18.361h2.283l-10.106,20.586V73.66h-2.179V60.876l-10.148-20.77h2.429
			L147.496,58.467z"/>
	</g>
</g>
</svg>
