<svg width="161" height="72" viewBox="0 0 161 72" fill="none" xmlns="http://www.w3.org/2000/svg">
<path d="M15.8293 4.92444C12.7608 4.92444 10.3469 6.0934 8.58977 8.43132C6.83156 10.7692 5.95246 13.9961 5.95246 18.1107C5.95246 22.4182 6.79815 25.6765 8.48849 27.8866C10.1788 30.0956 12.6261 31.2007 15.8293 31.2007C17.2148 31.2007 18.5553 31.0525 19.8521 30.7562C21.1488 30.4599 22.4967 30.0794 23.8968 29.6146V34.5391C21.3336 35.5802 18.429 36.1007 15.182 36.1007C10.4002 36.1007 6.72716 34.5431 4.16607 31.429C1.6029 28.3148 0.322876 23.8591 0.322876 18.0631C0.322876 14.4121 0.944094 11.2177 2.18862 8.48003C3.43105 5.74129 5.22997 3.64285 7.58329 2.18571C9.93661 0.72857 12.7002 0 15.8731 0C19.21 0 22.2931 0.752923 25.1235 2.25776L23.2025 7.03709C22.0999 6.47697 20.9348 5.98483 19.7049 5.55966C18.477 5.13652 17.1845 4.92444 15.8293 4.92444Z" fill="#8AAE75"/>
<path d="M50.1946 35.6199L46.9319 25.8684H34.4418L31.2459 35.6199H25.6143L37.8381 0.360352H43.6473L55.8712 35.6199H50.1946ZM45.5245 20.9206L42.4633 11.3609C42.2399 10.7207 41.9309 9.71202 41.5362 8.33505C41.1416 6.95807 40.8691 5.94944 40.7208 5.30915C40.3188 7.27872 39.73 9.43196 38.9563 11.7699L36.0069 20.9217H45.5245V20.9206Z" fill="#8AAE75"/>
<path d="M59.1766 35.6198V0.505371H64.517V35.6198H59.1766Z" fill="#8AAE75"/>
<path d="M83.4209 35.6198H78.0795V5.4288H68.4709V0.505371H93.0294V5.4288H83.4209V35.6198Z" fill="#8AAE75"/>
<path d="M97.0271 35.6198V0.505371H102.366V30.6954H116.199V35.6198H97.0271Z" fill="#8AAE75"/>
<path d="M120.823 35.6198V0.505371H126.164V35.6198H120.823Z" fill="#8AAE75"/>
<path d="M161 35.6198H154.453L138.387 7.63785H138.208L138.32 9.1995C138.528 12.1777 138.632 14.9002 138.632 17.366V35.6198H133.782V0.505371H140.263L156.285 28.3432H156.42C156.389 27.9749 156.33 26.6334 156.24 24.3199C156.15 22.0063 156.105 20.2001 156.105 18.9043V0.505371H161V35.6198Z" fill="#8AAE75"/>
<path d="M23.155 72H20.9033V54.3193H2.23057V72H0V36.0471H2.23057V52.007H20.9033V36.0471H23.155V72Z" fill="#948E88"/>
<path d="M46.5713 59.3102H33.583L29.1229 71.9999H26.6521L39.5087 35.8992H40.9301L53.5243 71.9999H51.0093L46.5713 59.3102ZM34.3922 57.0483H45.8285L41.4769 44.0875C41.1124 43.0728 40.6751 41.6617 40.1651 39.8583C39.7711 41.4324 39.3412 42.8596 38.8755 44.1379L34.3922 57.0483Z" fill="#948E88"/>
<path d="M82.4933 72H80.6568L73.6385 44.2601C73.0547 41.9821 72.6175 40.1134 72.3267 38.6541C72.0928 40.0802 71.7609 41.7196 71.332 43.5722C70.9021 45.4248 68.5514 54.9011 64.281 72H62.4003L53.6107 36.0471H55.9498L61.5468 59.2128C61.766 60.1471 61.9693 61.0129 62.159 61.808C62.3486 62.603 62.5193 63.3488 62.6731 64.0452C62.8259 64.7417 62.964 65.4135 63.0883 66.0629C63.2126 66.71 63.3254 67.3626 63.4276 68.0173C63.7774 65.7875 64.5212 62.4026 65.6581 57.8606L71.1245 36.0471H73.5953L80.0025 61.0815C80.7453 63.967 81.2774 66.2943 81.5988 68.0655C81.7884 66.8847 82.0318 65.6321 82.3311 64.3035C82.6292 62.9759 84.8777 53.5575 89.0755 36.0471H91.3292L82.4933 72Z" fill="#948E88"/>
<path d="M95.939 72V36.0471H98.1685V69.6395H113.41V72H95.939Z" fill="#948E88"/>
<path d="M135.359 72H117.89V36.0471H135.359V38.3594H120.12V51.9577H134.507V54.2689H120.12V69.6888H135.359V72Z" fill="#948E88"/>
<path d="M148.914 55.7208L158.272 36.0471H160.677L150.029 58.1049V72H147.733V58.302L137.041 36.0471H139.6L148.914 55.7208Z" fill="#948E88"/>
</svg>
