<svg width="16" height="16" viewBox="0 0 16 16" xmlns="http://www.w3.org/2000/svg">
<path d="M13.4298 12.1588C13.7914 11.635 14 11.02 14 10.3621C14 9.14784 13.2901 8.0798 12.2164 7.46364C12.1897 4.99428 9.91323 3 7.10943 3C4.28711 3 2.00009 5.01795 2.00009 7.50746C2.00009 8.36574 2.2722 9.168 2.74399 9.8512L2.09384 11.0561C1.82127 11.5103 2.18572 12.0149 2.6329 12.0149C2.74826 12.0141 2.86119 11.9817 2.95938 11.9212L4.23437 11.2335C4.96415 11.6683 5.78441 11.9288 6.63131 11.9948C7.29201 13.0797 8.58996 13.8173 10.0834 13.8173C10.9006 13.8173 11.6593 13.596 12.2865 13.2182L13.2641 13.7453C13.3394 13.7917 13.4259 13.8166 13.5144 13.8173C13.8568 13.8173 14.1362 13.4305 13.9271 13.0823L13.4298 12.1588ZM4.54374 10.7184L4.25008 10.5417L3.94844 10.7043L2.67345 11.392L2.66126 11.3985L2.64954 11.4056C2.64423 11.4087 2.63866 11.4115 2.6329 11.4138C2.61875 11.4081 2.60734 11.3972 2.60103 11.3833C2.6028 11.3769 2.60557 11.3708 2.60923 11.3652L2.61626 11.3535L2.62282 11.3413L3.27297 10.136L3.44782 9.81182L3.23852 9.50901C2.8204 8.90573 2.60103 8.2134 2.60103 7.50746C2.60103 5.35334 4.62296 3.60093 7.10849 3.60093C9.46464 3.60093 11.4041 5.17592 11.5995 7.17489C11.1142 6.99613 10.6009 6.90519 10.0836 6.9063C7.92059 6.9063 6.16701 8.45316 6.16701 10.3621C6.16687 10.7 6.2223 11.0355 6.33107 11.3554C5.6993 11.2623 5.09201 11.0458 4.54374 10.7184V10.7184ZM12.9343 11.8169L12.725 12.1197L12.8999 12.4438L13.2214 13.0398L12.5727 12.6897L12.271 12.527L11.9774 12.7038C11.4198 13.0394 10.7647 13.2168 10.0834 13.2168C8.25528 13.2168 6.76795 11.9362 6.76795 10.3621C6.76795 8.78808 8.25528 7.50746 10.0834 7.50746C11.9115 7.50746 13.3988 8.78808 13.3988 10.3621C13.3962 10.883 13.2345 11.3906 12.9352 11.8169H12.9343ZM11.2937 10.5124C11.2937 10.5718 11.2761 10.6299 11.2431 10.6793C11.21 10.7287 11.1631 10.7672 11.1082 10.79C11.0533 10.8127 10.9929 10.8186 10.9346 10.8071C10.8763 10.7955 10.8228 10.7668 10.7808 10.7248C10.7387 10.6828 10.7101 10.6293 10.6985 10.571C10.6869 10.5127 10.6929 10.4523 10.7156 10.3974C10.7384 10.3425 10.7769 10.2955 10.8263 10.2625C10.8757 10.2295 10.9338 10.2119 10.9932 10.2119C11.0328 10.2116 11.0721 10.2192 11.1088 10.2342C11.1455 10.2492 11.1788 10.2713 11.2069 10.2992C11.235 10.3272 11.2573 10.3604 11.2725 10.3969C11.2877 10.4335 11.2956 10.4727 11.2956 10.5124H11.2937ZM10.3923 10.5124C10.3923 10.5718 10.3747 10.6299 10.3417 10.6793C10.3086 10.7287 10.2617 10.7672 10.2068 10.79C10.1519 10.8127 10.0915 10.8186 10.0332 10.8071C9.97492 10.7955 9.92139 10.7668 9.87937 10.7248C9.83734 10.6828 9.80873 10.6293 9.79713 10.571C9.78554 10.5127 9.79149 10.4523 9.81423 10.3974C9.83697 10.3425 9.87549 10.2955 9.9249 10.2625C9.97431 10.2295 10.0324 10.2119 10.0918 10.2119C10.1314 10.2117 10.1707 10.2193 10.2073 10.2343C10.244 10.2493 10.2773 10.2714 10.3054 10.2993C10.3334 10.3272 10.3557 10.3604 10.3709 10.397C10.3861 10.4336 10.3939 10.4728 10.3939 10.5124H10.3923ZM9.49089 10.5124C9.49089 10.5718 9.47327 10.6299 9.44026 10.6793C9.40724 10.7287 9.36031 10.7672 9.30541 10.79C9.25051 10.8127 9.19009 10.8186 9.13181 10.8071C9.07353 10.7955 9.01999 10.7668 8.97797 10.7248C8.93595 10.6828 8.90733 10.6293 8.89574 10.571C8.88414 10.5127 8.89009 10.4523 8.91283 10.3974C8.93557 10.3425 8.97409 10.2955 9.0235 10.2625C9.07291 10.2295 9.131 10.2119 9.19043 10.2119C9.23002 10.2117 9.26927 10.2193 9.30592 10.2343C9.34256 10.2493 9.37588 10.2714 9.40395 10.2993C9.43203 10.3272 9.45431 10.3604 9.46951 10.397C9.48471 10.4336 9.49254 10.4728 9.49253 10.5124H9.49089Z"/>
</svg>
