<svg width="16" height="16" viewBox="0 0 16 16" xmlns="http://www.w3.org/2000/svg">
<path d="M12.9941 2.32357C12.818 2.32772 12.6506 2.40146 12.5286 2.52864L8 7.05729L3.47136 2.52864C3.40915 2.4647 3.33475 2.41389 3.25256 2.37923C3.17036 2.34456 3.08205 2.32674 2.99284 2.32682C2.86028 2.32699 2.73077 2.36666 2.62086 2.44079C2.51095 2.51492 2.42564 2.62012 2.37582 2.74297C2.32599 2.86582 2.31392 3.00073 2.34114 3.13047C2.36837 3.26021 2.43365 3.37889 2.52865 3.47135L7.0573 8L2.52865 12.5286C2.46467 12.5901 2.41359 12.6637 2.37839 12.7451C2.3432 12.8265 2.32461 12.9141 2.32371 13.0028C2.32281 13.0915 2.33961 13.1795 2.37314 13.2616C2.40667 13.3437 2.45624 13.4183 2.51896 13.481C2.58168 13.5438 2.65628 13.5933 2.7384 13.6269C2.82052 13.6604 2.9085 13.6772 2.99719 13.6763C3.08589 13.6754 3.17351 13.6568 3.25493 13.6216C3.33635 13.5864 3.40993 13.5353 3.47136 13.4714L8 8.94271L12.5286 13.4714C12.5901 13.5353 12.6637 13.5864 12.7451 13.6216C12.8265 13.6568 12.9141 13.6754 13.0028 13.6763C13.0915 13.6772 13.1795 13.6604 13.2616 13.6269C13.3437 13.5933 13.4183 13.5438 13.4811 13.481C13.5438 13.4183 13.5933 13.3437 13.6269 13.2616C13.6604 13.1795 13.6772 13.0915 13.6763 13.0028C13.6754 12.9141 13.6568 12.8265 13.6216 12.7451C13.5864 12.6637 13.5353 12.5901 13.4714 12.5286L8.94271 8L13.4714 3.47135C13.5684 3.37833 13.635 3.25816 13.6625 3.12661C13.69 2.99505 13.6771 2.85825 13.6255 2.73415C13.5739 2.61005 13.486 2.50443 13.3734 2.43116C13.2607 2.3579 13.1285 2.32039 12.9941 2.32357Z" />
</svg>
