<svg xmlns="http://www.w3.org/2000/svg" width="16" height="16" viewBox="0 0 16 16">
  <path d="m2.891 14-.34-.344 2.024-2.044C2.77 10.43 2.032 8.614 2.018 8.59a.232.232 0 0 1 0-.18c.02-.038 1.65-4.025 5.982-4.025 1.2 0 2.192.305 2.998.746L13.108 3l.341.344-2.024 2.044c1.804 1.182 2.543 2.998 2.557 3.022a.232.232 0 0 1 0 .18c-.02.043-1.65 4.03-5.982 4.03-1.2 0-2.192-.306-2.998-.746L2.892 14Zm2.456-2.48A5.775 5.775 0 0 0 8 12.135c3.699 0 5.239-3.051 5.498-3.633-.168-.382-.888-1.826-2.409-2.775L9.717 7.112c.312.378.5.862.5 1.39 0 1.202-.97 2.18-2.16 2.18a2.13 2.13 0 0 1-1.376-.504L5.347 11.52ZM2.502 8.502c.168.383.888 1.826 2.409 2.776l1.43-1.444a2.17 2.17 0 0 1-.452-1.327c0-1.201.97-2.18 2.159-2.18.494 0 .95.17 1.314.456l1.281-1.293C9.928 5.117 9.051 4.87 8 4.87c-3.699 0-5.238 3.051-5.498 3.632Zm4.515 1.332c.287.228.647.364 1.036.364.926 0 1.679-.76 1.679-1.696 0-.392-.135-.755-.36-1.046L7.017 9.834Zm1.036-3.027c-.926 0-1.68.76-1.68 1.695 0 .369.116.708.313.984l2.34-2.364a1.65 1.65 0 0 0-.973-.315Z"/>
</svg>
