<svg xmlns="http://www.w3.org/2000/svg" width="16" height="16" viewBox="0 0 16 16">
  <path d="M8 12c-4.322 0-5.95-3.873-5.983-3.91a.232.232 0 0 1 0-.175C2.05 7.873 3.677 4 8 4c4.322 0 5.95 3.873 5.983 3.91a.231.231 0 0 1 0 .175C13.949 8.127 12.323 12 8 12ZM2.496 8c.277.565 1.814 3.53 5.504 3.53 3.69 0 5.227-2.965 5.504-3.53C13.227 7.435 11.69 4.47 8 4.47 4.31 4.47 2.773 7.436 2.496 8ZM8 10.118a2.18 2.18 0 0 1-1.197-.357 2.126 2.126 0 0 1-.793-.95 2.085 2.085 0 0 1 .467-2.308 2.188 2.188 0 0 1 2.347-.46c.394.16.73.432.967.78a2.092 2.092 0 0 1-.268 2.674 2.17 2.17 0 0 1-1.523.62Zm0-3.765c-.331 0-.655.097-.93.278-.276.18-.49.438-.618.739a1.621 1.621 0 0 0 .363 1.795 1.702 1.702 0 0 0 1.826.357 1.67 1.67 0 0 0 .752-.607 1.627 1.627 0 0 0-.208-2.08A1.69 1.69 0 0 0 8 6.353Z"/>
</svg>
