<svg width="16" height="16" viewBox="0 0 16 16" fill="none" xmlns="http://www.w3.org/2000/svg">
<path fill-rule="evenodd" clip-rule="evenodd" d="M2 3.64286C2 3.47236 2.06773 3.30885 2.18829 3.18829C2.30885 3.06773 2.47236 3 2.64286 3H13.3571C13.4416 3 13.5252 3.01663 13.6032 3.04893C13.6811 3.08124 13.752 3.12859 13.8117 3.18829C13.8714 3.24798 13.9188 3.31885 13.9511 3.39685C13.9834 3.47484 14 3.55844 14 3.64286C14 3.72728 13.9834 3.81087 13.9511 3.88887C13.9188 3.96686 13.8714 4.03773 13.8117 4.09743C13.752 4.15712 13.6811 4.20447 13.6032 4.23678C13.5252 4.26909 13.4416 4.28571 13.3571 4.28571H2.64286C2.47236 4.28571 2.30885 4.21799 2.18829 4.09743C2.06773 3.97687 2 3.81335 2 3.64286V3.64286ZM2 7.92857C2 7.75808 2.06773 7.59456 2.18829 7.474C2.30885 7.35344 2.47236 7.28571 2.64286 7.28571H13.3571C13.5276 7.28571 13.6912 7.35344 13.8117 7.474C13.9323 7.59456 14 7.75808 14 7.92857C14 8.09907 13.9323 8.26258 13.8117 8.38314C13.6912 8.5037 13.5276 8.57143 13.3571 8.57143H2.64286C2.47236 8.57143 2.30885 8.5037 2.18829 8.38314C2.06773 8.26258 2 8.09907 2 7.92857V7.92857ZM2.64286 11.5714C2.47236 11.5714 2.30885 11.6392 2.18829 11.7597C2.06773 11.8803 2 12.0438 2 12.2143C2 12.3848 2.06773 12.5483 2.18829 12.6689C2.30885 12.7894 2.47236 12.8571 2.64286 12.8571H13.3571C13.5276 12.8571 13.6912 12.7894 13.8117 12.6689C13.9323 12.5483 14 12.3848 14 12.2143C14 12.0438 13.9323 11.8803 13.8117 11.7597C13.6912 11.6392 13.5276 11.5714 13.3571 11.5714H2.64286Z" fill="black"/>
</svg>
