<svg width="16" height="16" viewBox="0 0 16 16" fill="none" xmlns="http://www.w3.org/2000/svg">
<path d="M8.15038 13.9999C5.11957 14.0123 2.53472 11.8028 2.07229 8.80293C1.60968 5.80303 3.40793 2.91588 6.30181 2.01231C6.34954 1.99639 6.40107 1.9959 6.44909 2.01091C6.49712 2.02593 6.53921 2.05568 6.56942 2.09597C6.59962 2.13626 6.6164 2.18504 6.61739 2.23541C6.61838 2.28578 6.60352 2.33518 6.57493 2.37663C5.34086 4.40272 5.6527 7.01172 7.32917 8.68886C9.00526 10.3666 11.6111 10.6768 13.6338 9.44015C13.6754 9.41377 13.7242 9.40101 13.7734 9.40363C13.8226 9.40625 13.8698 9.42412 13.9084 9.45476C13.9873 9.51695 14.0195 9.6224 13.9881 9.7183C13.1903 12.2724 10.8233 14.0088 8.15038 13.9999ZM5.8566 2.69786C4.73734 3.1979 3.81094 4.04898 3.21725 5.12261C2.62357 6.19623 2.39483 7.4341 2.56558 8.64934C2.73636 9.86454 3.29744 10.9911 4.16406 11.8588C5.03067 12.7266 6.15576 13.2884 7.36939 13.4594C8.58304 13.6303 9.81929 13.4012 10.8915 12.8067C11.9637 12.2122 12.8136 11.2846 13.313 10.1639C12.2695 10.6472 11.103 10.7981 9.97103 10.5963C8.83911 10.3945 7.79631 9.84974 6.98347 9.03557C6.17036 8.22168 5.62629 7.17753 5.42477 6.04414C5.22325 4.91075 5.37398 3.74273 5.8566 2.69786V2.69786Z" fill="black"/>
</svg>
