<svg width="42" height="9" viewBox="0 0 42 9" fill="none" xmlns="http://www.w3.org/2000/svg">
<g opacity="0.75">
<path d="M0 5.22675V4.63948L4.7676 2.23165V3.17129L1.11047 4.91843L1.14008 4.85971V5.00653L1.11047 4.9478L4.7676 6.69494V7.63458L0 5.22675Z" fill="#807E7C"/>
<path d="M8.92908 7.98695C8.39605 7.98695 7.93706 7.86215 7.5521 7.61256C7.16714 7.36297 6.87101 7.01917 6.66372 6.58116C6.45644 6.14315 6.35279 5.64274 6.35279 5.07994C6.35279 4.50734 6.4589 4.00204 6.67113 3.56403C6.88582 3.12357 7.18441 2.77977 7.5669 2.53263C7.95186 2.28303 8.40099 2.15824 8.91427 2.15824C9.31404 2.15824 9.67432 2.23165 9.99512 2.37847C10.3159 2.52529 10.5787 2.73083 10.7836 2.99511C10.9884 3.25938 11.1155 3.5677 11.1648 3.92007H10.2912C10.2246 3.66313 10.0766 3.43556 9.84706 3.23736C9.62003 3.0367 9.31404 2.93638 8.92908 2.93638C8.58853 2.93638 8.28994 3.02447 8.0333 3.20065C7.77913 3.37439 7.58048 3.62031 7.43735 3.93842C7.29669 4.25408 7.22636 4.6248 7.22636 5.05057C7.22636 5.48613 7.29546 5.86542 7.43365 6.18842C7.57431 6.51142 7.77172 6.76224 8.0259 6.94086C8.28254 7.11949 8.5836 7.20881 8.92908 7.20881C9.1561 7.20881 9.36216 7.16966 9.54724 7.09135C9.73231 7.01305 9.88901 6.90049 10.0173 6.75367C10.1457 6.60685 10.237 6.43067 10.2912 6.22512H11.1648C11.1155 6.55791 10.9933 6.85767 10.7984 7.12439C10.6059 7.38866 10.3505 7.5991 10.0321 7.75571C9.71627 7.90987 9.34859 7.98695 8.92908 7.98695Z" fill="#807E7C"/>
<path d="M14.7516 7.98695C14.2383 7.98695 13.788 7.86582 13.4006 7.62357C13.0156 7.38132 12.7145 7.04241 12.4974 6.60685C12.2827 6.17129 12.1753 5.66232 12.1753 5.07994C12.1753 4.49266 12.2827 3.98002 12.4974 3.54201C12.7145 3.104 13.0156 2.76387 13.4006 2.52162C13.788 2.27936 14.2383 2.15824 14.7516 2.15824C15.2649 2.15824 15.714 2.27936 16.099 2.52162C16.4864 2.76387 16.7875 3.104 17.0022 3.54201C17.2193 3.98002 17.3279 4.49266 17.3279 5.07994C17.3279 5.66232 17.2193 6.17129 17.0022 6.60685C16.7875 7.04241 16.4864 7.38132 16.099 7.62357C15.714 7.86582 15.2649 7.98695 14.7516 7.98695ZM14.7516 7.20881C15.1415 7.20881 15.4623 7.10971 15.714 6.9115C15.9657 6.7133 16.152 6.45269 16.273 6.12969C16.3939 5.80669 16.4543 5.45677 16.4543 5.07994C16.4543 4.7031 16.3939 4.35196 16.273 4.02651C16.152 3.70106 15.9657 3.43801 15.714 3.23736C15.4623 3.0367 15.1415 2.93638 14.7516 2.93638C14.3617 2.93638 14.0409 3.0367 13.7892 3.23736C13.5375 3.43801 13.3512 3.70106 13.2303 4.02651C13.1094 4.35196 13.0489 4.7031 13.0489 5.07994C13.0489 5.45677 13.1094 5.80669 13.2303 6.12969C13.3512 6.45269 13.5375 6.7133 13.7892 6.9115C14.0409 7.10971 14.3617 7.20881 14.7516 7.20881Z" fill="#807E7C"/>
<path d="M20.8083 7.98695C20.3345 7.98695 19.9162 7.86827 19.5535 7.63091C19.1907 7.39111 18.9069 7.05343 18.7021 6.61786C18.4973 6.17985 18.3949 5.66232 18.3949 5.06525C18.3949 4.47308 18.4973 3.95922 18.7021 3.52365C18.9069 3.08809 19.1919 2.75163 19.5572 2.51427C19.9224 2.27692 20.3444 2.15824 20.8231 2.15824C21.1933 2.15824 21.4857 2.21941 21.7004 2.34176C21.9175 2.46166 22.0829 2.5987 22.1964 2.75285C22.3124 2.90457 22.4024 3.02936 22.4666 3.12724H22.5406V0.352366H23.4142V7.86949H22.5702V7.00326H22.4666C22.4024 7.10604 22.3111 7.23573 22.1927 7.39233C22.0742 7.54649 21.9052 7.68475 21.6856 7.8071C21.4659 7.927 21.1735 7.98695 20.8083 7.98695ZM20.9267 7.20881C21.2772 7.20881 21.5733 7.11827 21.8151 6.93719C22.0569 6.75367 22.2408 6.50041 22.3666 6.17741C22.4925 5.85196 22.5554 5.47635 22.5554 5.05057C22.5554 4.62969 22.4937 4.26142 22.3703 3.94576C22.247 3.62765 22.0644 3.38051 21.8225 3.20432C21.5807 3.02569 21.2821 2.93638 20.9267 2.93638C20.5566 2.93638 20.2481 3.03059 20.0014 3.21901C19.757 3.40498 19.5732 3.65824 19.4498 3.97879C19.3289 4.2969 19.2684 4.65416 19.2684 5.05057C19.2684 5.45188 19.3301 5.81648 19.4535 6.14437C19.5794 6.46982 19.7645 6.7292 20.0088 6.92251C20.2555 7.11338 20.5615 7.20881 20.9267 7.20881Z" fill="#807E7C"/>
<path d="M27.5192 7.98695C26.9714 7.98695 26.4988 7.86705 26.1015 7.62724C25.7067 7.38499 25.4019 7.04731 25.1872 6.61419C24.975 6.17863 24.8689 5.6721 24.8689 5.09462C24.8689 4.51713 24.975 4.00816 25.1872 3.5677C25.4019 3.1248 25.7005 2.77977 26.083 2.53263C26.468 2.28303 26.9171 2.15824 27.4304 2.15824C27.7265 2.15824 28.0189 2.20718 28.3076 2.30506C28.5964 2.40294 28.8592 2.56199 29.0961 2.78222C29.333 3 29.5218 3.28874 29.6624 3.64845C29.8031 4.00816 29.8734 4.45106 29.8734 4.97716V5.34421H25.4908V4.59543H28.985C28.985 4.27733 28.9209 3.99347 28.7925 3.74388C28.6667 3.49429 28.4865 3.29731 28.2521 3.15294C28.0202 3.00856 27.7462 2.93638 27.4304 2.93638C27.0824 2.93638 26.7814 3.02202 26.5272 3.19331C26.2755 3.36215 26.0818 3.58238 25.946 3.854C25.8103 4.12561 25.7425 4.4168 25.7425 4.72757V5.22675C25.7425 5.65253 25.8165 6.01346 25.9646 6.30954C26.1151 6.60318 26.3236 6.82708 26.5901 6.98124C26.8566 7.13295 27.1663 7.20881 27.5192 7.20881C27.7487 7.20881 27.956 7.177 28.1411 7.11338C28.3286 7.04731 28.4903 6.94943 28.626 6.81974C28.7617 6.6876 28.8666 6.52365 28.9406 6.3279L29.7846 6.56281C29.6957 6.84666 29.5464 7.09625 29.3367 7.31158C29.1269 7.52447 28.8678 7.69086 28.5593 7.81077C28.2509 7.92822 27.9042 7.98695 27.5192 7.98695Z" fill="#807E7C"/>
<path d="M35.9452 0L33.5022 9H32.7026L35.1456 0H35.9452Z" fill="#807E7C"/>
<path d="M42 5.22675L37.2324 7.63458V6.69494L40.8895 4.9478L40.8599 5.00653V4.85971L40.8895 4.91843L37.2324 3.17129V2.23165L42 4.63948V5.22675Z" fill="#807E7C"/>
</g>
</svg>
